<mxfile host="app.diagrams.net" modified="2024-05-01T17:58:24.430Z" agent="Mozilla/5.0 (Windows NT 10.0; Win64; x64) AppleWebKit/537.36 (KHTML, like Gecko) Chrome/124.0.0.0 Safari/537.36 Edg/124.0.0.0" etag="oREqVfyujDYXsodcvuzj" version="24.3.1" type="device">
  <diagram name="Страница — 1" id="nUkmSpbdiUjMFFn3sTzZ">
    <mxGraphModel dx="1490" dy="365" grid="1" gridSize="10" guides="1" tooltips="1" connect="1" arrows="1" fold="1" page="1" pageScale="1" pageWidth="827" pageHeight="1169" math="0" shadow="0">
      <root>
        <mxCell id="0" />
        <mxCell id="1" parent="0" />
        <mxCell id="0B1YHZqLJ0e6eENOpXDG-2" style="edgeStyle=orthogonalEdgeStyle;rounded=0;orthogonalLoop=1;jettySize=auto;html=1;exitX=0.5;exitY=1;exitDx=0;exitDy=0;labelBackgroundColor=none;strokeColor=#E07A5F;fontColor=default;" edge="1" parent="1" source="0B1YHZqLJ0e6eENOpXDG-1" target="0B1YHZqLJ0e6eENOpXDG-3">
          <mxGeometry relative="1" as="geometry">
            <mxPoint x="434.09302325581393" y="205" as="targetPoint" />
          </mxGeometry>
        </mxCell>
        <mxCell id="0B1YHZqLJ0e6eENOpXDG-1" value="" style="ellipse;whiteSpace=wrap;html=1;labelBackgroundColor=none;fillColor=#000000;strokeColor=#E07A5F;fontColor=#393C56;perimeterSpacing=0;strokeWidth=2;" vertex="1" parent="1">
          <mxGeometry x="414" y="125" width="40" height="40" as="geometry" />
        </mxCell>
        <mxCell id="0B1YHZqLJ0e6eENOpXDG-4" style="edgeStyle=orthogonalEdgeStyle;rounded=0;orthogonalLoop=1;jettySize=auto;html=1;exitX=0.5;exitY=1;exitDx=0;exitDy=0;labelBackgroundColor=none;strokeColor=#E07A5F;fontColor=default;" edge="1" parent="1" source="0B1YHZqLJ0e6eENOpXDG-3" target="0B1YHZqLJ0e6eENOpXDG-5">
          <mxGeometry relative="1" as="geometry">
            <mxPoint x="434.09302325581393" y="285" as="targetPoint" />
          </mxGeometry>
        </mxCell>
        <mxCell id="0B1YHZqLJ0e6eENOpXDG-3" value="Запрос данных о технике" style="rounded=1;whiteSpace=wrap;html=1;labelBackgroundColor=none;fillColor=#F2CC8F;strokeColor=#E07A5F;fontColor=#393C56;" vertex="1" parent="1">
          <mxGeometry x="374" y="205" width="120" height="40" as="geometry" />
        </mxCell>
        <mxCell id="0B1YHZqLJ0e6eENOpXDG-17" style="edgeStyle=orthogonalEdgeStyle;rounded=0;orthogonalLoop=1;jettySize=auto;html=1;exitX=0.5;exitY=1;exitDx=0;exitDy=0;entryX=0.5;entryY=0;entryDx=0;entryDy=0;labelBackgroundColor=none;strokeColor=#E07A5F;fontColor=default;" edge="1" parent="1" source="0B1YHZqLJ0e6eENOpXDG-5" target="0B1YHZqLJ0e6eENOpXDG-16">
          <mxGeometry relative="1" as="geometry" />
        </mxCell>
        <mxCell id="0B1YHZqLJ0e6eENOpXDG-5" value="Получение данных о технике" style="rounded=1;whiteSpace=wrap;html=1;labelBackgroundColor=none;fillColor=#F2CC8F;strokeColor=#E07A5F;fontColor=#393C56;" vertex="1" parent="1">
          <mxGeometry x="374" y="285" width="120" height="40" as="geometry" />
        </mxCell>
        <mxCell id="0B1YHZqLJ0e6eENOpXDG-9" style="edgeStyle=orthogonalEdgeStyle;rounded=0;orthogonalLoop=1;jettySize=auto;html=1;exitX=0;exitY=0.75;exitDx=0;exitDy=0;entryX=0;entryY=0.25;entryDx=0;entryDy=0;labelBackgroundColor=none;strokeColor=#E07A5F;fontColor=default;" edge="1" parent="1" source="0B1YHZqLJ0e6eENOpXDG-8" target="0B1YHZqLJ0e6eENOpXDG-8">
          <mxGeometry relative="1" as="geometry">
            <mxPoint x="334" y="475" as="targetPoint" />
            <Array as="points">
              <mxPoint x="334" y="475" />
              <mxPoint x="334" y="455" />
            </Array>
          </mxGeometry>
        </mxCell>
        <mxCell id="0B1YHZqLJ0e6eENOpXDG-12" value="Свободных&amp;nbsp;&lt;div&gt;мастеров нет&lt;/div&gt;" style="edgeLabel;html=1;align=center;verticalAlign=middle;resizable=0;points=[];labelBackgroundColor=none;fontColor=#393C56;" vertex="1" connectable="0" parent="0B1YHZqLJ0e6eENOpXDG-9">
          <mxGeometry x="0.4065" y="-1" relative="1" as="geometry">
            <mxPoint x="-50" y="9" as="offset" />
          </mxGeometry>
        </mxCell>
        <mxCell id="0B1YHZqLJ0e6eENOpXDG-13" style="edgeStyle=orthogonalEdgeStyle;rounded=0;orthogonalLoop=1;jettySize=auto;html=1;exitX=0.5;exitY=1;exitDx=0;exitDy=0;labelBackgroundColor=none;strokeColor=#E07A5F;fontColor=default;" edge="1" parent="1" source="0B1YHZqLJ0e6eENOpXDG-8" target="0B1YHZqLJ0e6eENOpXDG-15">
          <mxGeometry relative="1" as="geometry">
            <mxPoint x="434.1111111111111" y="525" as="targetPoint" />
          </mxGeometry>
        </mxCell>
        <mxCell id="0B1YHZqLJ0e6eENOpXDG-14" value="Мастера есть" style="edgeLabel;html=1;align=center;verticalAlign=middle;resizable=0;points=[];labelBackgroundColor=none;fontColor=#393C56;" vertex="1" connectable="0" parent="0B1YHZqLJ0e6eENOpXDG-13">
          <mxGeometry x="-0.286" relative="1" as="geometry">
            <mxPoint x="-40" y="6" as="offset" />
          </mxGeometry>
        </mxCell>
        <mxCell id="0B1YHZqLJ0e6eENOpXDG-8" value="Получение данных о занятости мастеров" style="rounded=1;whiteSpace=wrap;html=1;labelBackgroundColor=none;fillColor=#F2CC8F;strokeColor=#E07A5F;fontColor=#393C56;" vertex="1" parent="1">
          <mxGeometry x="374" y="445" width="120" height="40" as="geometry" />
        </mxCell>
        <mxCell id="0B1YHZqLJ0e6eENOpXDG-19" style="edgeStyle=orthogonalEdgeStyle;rounded=0;orthogonalLoop=1;jettySize=auto;html=1;exitX=0.5;exitY=1;exitDx=0;exitDy=0;labelBackgroundColor=none;strokeColor=#E07A5F;fontColor=default;" edge="1" parent="1" source="0B1YHZqLJ0e6eENOpXDG-15" target="0B1YHZqLJ0e6eENOpXDG-20">
          <mxGeometry relative="1" as="geometry">
            <mxPoint x="434.04761904761904" y="605" as="targetPoint" />
          </mxGeometry>
        </mxCell>
        <mxCell id="0B1YHZqLJ0e6eENOpXDG-15" value="Формирование заказа" style="rounded=1;whiteSpace=wrap;html=1;labelBackgroundColor=none;fillColor=#F2CC8F;strokeColor=#E07A5F;fontColor=#393C56;" vertex="1" parent="1">
          <mxGeometry x="374" y="525" width="120" height="40" as="geometry" />
        </mxCell>
        <mxCell id="0B1YHZqLJ0e6eENOpXDG-16" value="Запрос данных о занятости мастеров" style="rounded=1;whiteSpace=wrap;html=1;labelBackgroundColor=none;fillColor=#F2CC8F;strokeColor=#E07A5F;fontColor=#393C56;" vertex="1" parent="1">
          <mxGeometry x="374" y="365" width="120" height="40" as="geometry" />
        </mxCell>
        <mxCell id="0B1YHZqLJ0e6eENOpXDG-18" style="edgeStyle=orthogonalEdgeStyle;rounded=0;orthogonalLoop=1;jettySize=auto;html=1;exitX=0.5;exitY=1;exitDx=0;exitDy=0;entryX=0.504;entryY=-0.088;entryDx=0;entryDy=0;entryPerimeter=0;labelBackgroundColor=none;strokeColor=#E07A5F;fontColor=default;" edge="1" parent="1" source="0B1YHZqLJ0e6eENOpXDG-16" target="0B1YHZqLJ0e6eENOpXDG-8">
          <mxGeometry relative="1" as="geometry" />
        </mxCell>
        <mxCell id="0B1YHZqLJ0e6eENOpXDG-24" style="edgeStyle=orthogonalEdgeStyle;rounded=0;orthogonalLoop=1;jettySize=auto;html=1;exitX=0.25;exitY=1;exitDx=0;exitDy=0;entryX=0.5;entryY=0;entryDx=0;entryDy=0;labelBackgroundColor=none;strokeColor=#E07A5F;fontColor=default;" edge="1" parent="1" source="0B1YHZqLJ0e6eENOpXDG-20" target="0B1YHZqLJ0e6eENOpXDG-23">
          <mxGeometry relative="1" as="geometry" />
        </mxCell>
        <mxCell id="0B1YHZqLJ0e6eENOpXDG-25" style="edgeStyle=orthogonalEdgeStyle;rounded=0;orthogonalLoop=1;jettySize=auto;html=1;exitX=0.75;exitY=1;exitDx=0;exitDy=0;entryX=0.5;entryY=0;entryDx=0;entryDy=0;labelBackgroundColor=none;strokeColor=#E07A5F;fontColor=default;" edge="1" parent="1" source="0B1YHZqLJ0e6eENOpXDG-20" target="0B1YHZqLJ0e6eENOpXDG-22">
          <mxGeometry relative="1" as="geometry" />
        </mxCell>
        <mxCell id="0B1YHZqLJ0e6eENOpXDG-20" value="Выбор способа оплаты" style="rounded=1;whiteSpace=wrap;html=1;labelBackgroundColor=none;fillColor=#F2CC8F;strokeColor=#E07A5F;fontColor=#393C56;" vertex="1" parent="1">
          <mxGeometry x="374" y="605" width="120" height="40" as="geometry" />
        </mxCell>
        <mxCell id="0B1YHZqLJ0e6eENOpXDG-29" style="edgeStyle=orthogonalEdgeStyle;rounded=0;orthogonalLoop=1;jettySize=auto;html=1;exitX=0.25;exitY=1;exitDx=0;exitDy=0;entryX=0.75;entryY=0;entryDx=0;entryDy=0;labelBackgroundColor=none;strokeColor=#E07A5F;fontColor=default;" edge="1" parent="1" source="0B1YHZqLJ0e6eENOpXDG-22" target="0B1YHZqLJ0e6eENOpXDG-28">
          <mxGeometry relative="1" as="geometry" />
        </mxCell>
        <mxCell id="0B1YHZqLJ0e6eENOpXDG-31" value="Оплата прошла успешно" style="edgeLabel;html=1;align=center;verticalAlign=middle;resizable=0;points=[];labelBackgroundColor=none;fontColor=#393C56;" vertex="1" connectable="0" parent="0B1YHZqLJ0e6eENOpXDG-29">
          <mxGeometry x="-0.48" relative="1" as="geometry">
            <mxPoint x="70" y="4" as="offset" />
          </mxGeometry>
        </mxCell>
        <mxCell id="0B1YHZqLJ0e6eENOpXDG-22" value="Оплата наличными" style="rounded=1;whiteSpace=wrap;html=1;labelBackgroundColor=none;fillColor=#F2CC8F;strokeColor=#E07A5F;fontColor=#393C56;" vertex="1" parent="1">
          <mxGeometry x="454" y="685" width="120" height="40" as="geometry" />
        </mxCell>
        <mxCell id="0B1YHZqLJ0e6eENOpXDG-26" style="edgeStyle=orthogonalEdgeStyle;rounded=0;orthogonalLoop=1;jettySize=auto;html=1;exitX=0;exitY=0.75;exitDx=0;exitDy=0;entryX=-0.008;entryY=0.242;entryDx=0;entryDy=0;entryPerimeter=0;labelBackgroundColor=none;strokeColor=#E07A5F;fontColor=default;" edge="1" parent="1" source="0B1YHZqLJ0e6eENOpXDG-23" target="0B1YHZqLJ0e6eENOpXDG-23">
          <mxGeometry relative="1" as="geometry">
            <mxPoint x="254" y="715" as="targetPoint" />
            <Array as="points">
              <mxPoint x="254" y="715" />
              <mxPoint x="254" y="695" />
            </Array>
          </mxGeometry>
        </mxCell>
        <mxCell id="0B1YHZqLJ0e6eENOpXDG-27" value="Оплата&lt;div&gt;не прошла&lt;/div&gt;" style="edgeLabel;html=1;align=center;verticalAlign=middle;resizable=0;points=[];labelBackgroundColor=none;fontColor=#393C56;" vertex="1" connectable="0" parent="0B1YHZqLJ0e6eENOpXDG-26">
          <mxGeometry x="0.0298" y="-1" relative="1" as="geometry">
            <mxPoint x="-31" y="1" as="offset" />
          </mxGeometry>
        </mxCell>
        <mxCell id="0B1YHZqLJ0e6eENOpXDG-30" style="edgeStyle=orthogonalEdgeStyle;rounded=0;orthogonalLoop=1;jettySize=auto;html=1;exitX=0.75;exitY=1;exitDx=0;exitDy=0;entryX=0.25;entryY=0;entryDx=0;entryDy=0;labelBackgroundColor=none;strokeColor=#E07A5F;fontColor=default;" edge="1" parent="1" source="0B1YHZqLJ0e6eENOpXDG-23" target="0B1YHZqLJ0e6eENOpXDG-28">
          <mxGeometry relative="1" as="geometry" />
        </mxCell>
        <mxCell id="0B1YHZqLJ0e6eENOpXDG-32" value="Оплата прошла успешно" style="edgeLabel;html=1;align=center;verticalAlign=middle;resizable=0;points=[];labelBackgroundColor=none;fontColor=#393C56;" vertex="1" connectable="0" parent="0B1YHZqLJ0e6eENOpXDG-30">
          <mxGeometry x="-0.2" y="1" relative="1" as="geometry">
            <mxPoint x="-74" as="offset" />
          </mxGeometry>
        </mxCell>
        <mxCell id="0B1YHZqLJ0e6eENOpXDG-23" value="Оплата картой" style="rounded=1;whiteSpace=wrap;html=1;fontStyle=0;labelBackgroundColor=none;fillColor=#F2CC8F;strokeColor=#E07A5F;fontColor=#393C56;" vertex="1" parent="1">
          <mxGeometry x="294" y="685" width="120" height="40" as="geometry" />
        </mxCell>
        <mxCell id="0B1YHZqLJ0e6eENOpXDG-33" style="edgeStyle=orthogonalEdgeStyle;rounded=0;orthogonalLoop=1;jettySize=auto;html=1;exitX=0.5;exitY=1;exitDx=0;exitDy=0;labelBackgroundColor=none;strokeColor=#E07A5F;fontColor=default;" edge="1" parent="1" source="0B1YHZqLJ0e6eENOpXDG-28" target="0B1YHZqLJ0e6eENOpXDG-34">
          <mxGeometry relative="1" as="geometry">
            <mxPoint x="434" y="845" as="targetPoint" />
          </mxGeometry>
        </mxCell>
        <mxCell id="0B1YHZqLJ0e6eENOpXDG-28" value="Обработка заказа" style="rounded=1;whiteSpace=wrap;html=1;labelBackgroundColor=none;fillColor=#F2CC8F;strokeColor=#E07A5F;fontColor=#393C56;" vertex="1" parent="1">
          <mxGeometry x="374" y="765" width="120" height="40" as="geometry" />
        </mxCell>
        <mxCell id="0B1YHZqLJ0e6eENOpXDG-35" style="edgeStyle=orthogonalEdgeStyle;rounded=0;orthogonalLoop=1;jettySize=auto;html=1;exitX=0.5;exitY=1;exitDx=0;exitDy=0;labelBackgroundColor=none;strokeColor=#E07A5F;fontColor=default;" edge="1" parent="1" source="0B1YHZqLJ0e6eENOpXDG-34" target="0B1YHZqLJ0e6eENOpXDG-39">
          <mxGeometry relative="1" as="geometry">
            <mxPoint x="484" y="945" as="targetPoint" />
          </mxGeometry>
        </mxCell>
        <mxCell id="0B1YHZqLJ0e6eENOpXDG-34" value="Добавление заказа мастеру" style="rounded=1;whiteSpace=wrap;html=1;labelBackgroundColor=none;fillColor=#F2CC8F;strokeColor=#E07A5F;fontColor=#393C56;" vertex="1" parent="1">
          <mxGeometry x="374" y="845" width="120" height="40" as="geometry" />
        </mxCell>
        <mxCell id="0B1YHZqLJ0e6eENOpXDG-40" style="edgeStyle=orthogonalEdgeStyle;rounded=0;orthogonalLoop=1;jettySize=auto;html=1;exitX=0.5;exitY=1;exitDx=0;exitDy=0;labelBackgroundColor=none;strokeColor=#E07A5F;fontColor=default;" edge="1" parent="1" source="0B1YHZqLJ0e6eENOpXDG-39" target="0B1YHZqLJ0e6eENOpXDG-41">
          <mxGeometry relative="1" as="geometry">
            <mxPoint x="434" y="1005" as="targetPoint" />
          </mxGeometry>
        </mxCell>
        <mxCell id="0B1YHZqLJ0e6eENOpXDG-42" value="Выдача&amp;nbsp;&lt;div&gt;отремонтированной техники&lt;/div&gt;" style="edgeLabel;html=1;align=center;verticalAlign=middle;resizable=0;points=[];labelBackgroundColor=none;fontColor=#393C56;" vertex="1" connectable="0" parent="0B1YHZqLJ0e6eENOpXDG-40">
          <mxGeometry x="-0.52" relative="1" as="geometry">
            <mxPoint x="-80" y="10" as="offset" />
          </mxGeometry>
        </mxCell>
        <mxCell id="0B1YHZqLJ0e6eENOpXDG-39" value="Выполнение заказа" style="rounded=1;whiteSpace=wrap;html=1;labelBackgroundColor=none;fillColor=#F2CC8F;strokeColor=#E07A5F;fontColor=#393C56;" vertex="1" parent="1">
          <mxGeometry x="374" y="925" width="120" height="40" as="geometry" />
        </mxCell>
        <mxCell id="0B1YHZqLJ0e6eENOpXDG-41" value="" style="ellipse;whiteSpace=wrap;html=1;labelBackgroundColor=none;fillColor=#330000;strokeColor=#E07A5F;fontColor=#393C56;strokeWidth=2;" vertex="1" parent="1">
          <mxGeometry x="414" y="1005" width="40" height="40" as="geometry" />
        </mxCell>
        <mxCell id="0B1YHZqLJ0e6eENOpXDG-47" value="Администратор" style="swimlane;whiteSpace=wrap;html=1;strokeColor=#E07A5F;fontColor=#393C56;fillColor=#F2CC8F;" vertex="1" parent="1">
          <mxGeometry x="-653" y="65" width="160" height="1040" as="geometry" />
        </mxCell>
        <mxCell id="0B1YHZqLJ0e6eENOpXDG-51" value="" style="ellipse;whiteSpace=wrap;html=1;labelBackgroundColor=none;fillColor=#000000;strokeColor=#E07A5F;fontColor=#393C56;perimeterSpacing=0;strokeWidth=2;" vertex="1" parent="0B1YHZqLJ0e6eENOpXDG-47">
          <mxGeometry x="70" y="90" width="20" height="20" as="geometry" />
        </mxCell>
        <mxCell id="0B1YHZqLJ0e6eENOpXDG-58" value="Запрос необходимой техники" style="rounded=0;whiteSpace=wrap;html=1;fontSize=8;" vertex="1" parent="0B1YHZqLJ0e6eENOpXDG-47">
          <mxGeometry x="40" y="180" width="80" height="40" as="geometry" />
        </mxCell>
        <mxCell id="0B1YHZqLJ0e6eENOpXDG-78" value="Запрос о свободном мастере" style="rounded=0;whiteSpace=wrap;html=1;fontSize=8;" vertex="1" parent="0B1YHZqLJ0e6eENOpXDG-47">
          <mxGeometry x="40" y="420" width="80" height="40" as="geometry" />
        </mxCell>
        <mxCell id="0B1YHZqLJ0e6eENOpXDG-94" value="Формирование заказа" style="rounded=0;whiteSpace=wrap;html=1;fontSize=8;" vertex="1" parent="0B1YHZqLJ0e6eENOpXDG-47">
          <mxGeometry x="40" y="560" width="80" height="40" as="geometry" />
        </mxCell>
        <mxCell id="0B1YHZqLJ0e6eENOpXDG-48" value="Система" style="swimlane;whiteSpace=wrap;html=1;strokeColor=#E07A5F;fontColor=#393C56;fillColor=#F2CC8F;fontSize=8;" vertex="1" parent="1">
          <mxGeometry x="-493" y="65" width="160" height="1040" as="geometry" />
        </mxCell>
        <mxCell id="0B1YHZqLJ0e6eENOpXDG-55" value="Показать список техники" style="rounded=0;whiteSpace=wrap;html=1;fontSize=8;" vertex="1" parent="0B1YHZqLJ0e6eENOpXDG-48">
          <mxGeometry x="40" y="80" width="80" height="40" as="geometry" />
        </mxCell>
        <mxCell id="0B1YHZqLJ0e6eENOpXDG-70" style="edgeStyle=orthogonalEdgeStyle;rounded=0;orthogonalLoop=1;jettySize=auto;html=1;exitX=0.5;exitY=0;exitDx=0;exitDy=0;entryX=0.5;entryY=1;entryDx=0;entryDy=0;strokeColor=#E07A5F;fontColor=#393C56;fillColor=#F2CC8F;" edge="1" parent="0B1YHZqLJ0e6eENOpXDG-48" source="0B1YHZqLJ0e6eENOpXDG-66" target="0B1YHZqLJ0e6eENOpXDG-68">
          <mxGeometry relative="1" as="geometry" />
        </mxCell>
        <mxCell id="0B1YHZqLJ0e6eENOpXDG-71" value="Нет" style="edgeLabel;html=1;align=center;verticalAlign=middle;resizable=0;points=[];strokeColor=#E07A5F;fontColor=#393C56;fillColor=#F2CC8F;" vertex="1" connectable="0" parent="0B1YHZqLJ0e6eENOpXDG-70">
          <mxGeometry x="-0.0167" relative="1" as="geometry">
            <mxPoint x="-20" as="offset" />
          </mxGeometry>
        </mxCell>
        <mxCell id="0B1YHZqLJ0e6eENOpXDG-66" value="&lt;font style=&quot;font-size: 8px;&quot;&gt;Присутствует&lt;/font&gt;" style="rhombus;whiteSpace=wrap;html=1;" vertex="1" parent="0B1YHZqLJ0e6eENOpXDG-48">
          <mxGeometry x="40" y="240" width="80" height="40" as="geometry" />
        </mxCell>
        <mxCell id="0B1YHZqLJ0e6eENOpXDG-72" style="edgeStyle=orthogonalEdgeStyle;rounded=0;orthogonalLoop=1;jettySize=auto;html=1;exitX=1;exitY=0.5;exitDx=0;exitDy=0;strokeColor=#E07A5F;fontColor=#393C56;fillColor=#F2CC8F;entryX=1;entryY=0.5;entryDx=0;entryDy=0;" edge="1" parent="0B1YHZqLJ0e6eENOpXDG-48" source="0B1YHZqLJ0e6eENOpXDG-68" target="0B1YHZqLJ0e6eENOpXDG-55">
          <mxGeometry relative="1" as="geometry">
            <mxPoint x="140" y="100" as="targetPoint" />
          </mxGeometry>
        </mxCell>
        <mxCell id="0B1YHZqLJ0e6eENOpXDG-68" value="Вывод информации об отсутствии" style="rounded=0;whiteSpace=wrap;html=1;fontSize=8;" vertex="1" parent="0B1YHZqLJ0e6eENOpXDG-48">
          <mxGeometry x="40" y="160" width="80" height="40" as="geometry" />
        </mxCell>
        <mxCell id="0B1YHZqLJ0e6eENOpXDG-75" value="&lt;font style=&quot;font-size: 8px;&quot;&gt;Показать оказываемые услуги&lt;/font&gt;" style="rounded=0;whiteSpace=wrap;html=1;" vertex="1" parent="0B1YHZqLJ0e6eENOpXDG-48">
          <mxGeometry x="40" y="320" width="80" height="40" as="geometry" />
        </mxCell>
        <mxCell id="0B1YHZqLJ0e6eENOpXDG-73" style="edgeStyle=orthogonalEdgeStyle;rounded=0;orthogonalLoop=1;jettySize=auto;html=1;strokeColor=#E07A5F;fontColor=#393C56;fillColor=#F2CC8F;" edge="1" parent="0B1YHZqLJ0e6eENOpXDG-48" source="0B1YHZqLJ0e6eENOpXDG-66" target="0B1YHZqLJ0e6eENOpXDG-75">
          <mxGeometry relative="1" as="geometry">
            <mxPoint x="80" y="320" as="targetPoint" />
          </mxGeometry>
        </mxCell>
        <mxCell id="0B1YHZqLJ0e6eENOpXDG-74" value="Да" style="edgeLabel;html=1;align=center;verticalAlign=middle;resizable=0;points=[];strokeColor=#E07A5F;fontColor=#393C56;fillColor=#F2CC8F;" vertex="1" connectable="0" parent="0B1YHZqLJ0e6eENOpXDG-73">
          <mxGeometry x="-0.2301" y="-1" relative="1" as="geometry">
            <mxPoint x="-19" as="offset" />
          </mxGeometry>
        </mxCell>
        <mxCell id="0B1YHZqLJ0e6eENOpXDG-79" style="edgeStyle=orthogonalEdgeStyle;rounded=0;orthogonalLoop=1;jettySize=auto;html=1;exitX=0.5;exitY=0;exitDx=0;exitDy=0;entryX=0.5;entryY=1;entryDx=0;entryDy=0;strokeColor=#E07A5F;fontColor=#393C56;fillColor=#F2CC8F;" edge="1" parent="0B1YHZqLJ0e6eENOpXDG-48" source="0B1YHZqLJ0e6eENOpXDG-81" target="0B1YHZqLJ0e6eENOpXDG-83">
          <mxGeometry relative="1" as="geometry" />
        </mxCell>
        <mxCell id="0B1YHZqLJ0e6eENOpXDG-80" value="Нет" style="edgeLabel;html=1;align=center;verticalAlign=middle;resizable=0;points=[];strokeColor=#E07A5F;fontColor=#393C56;fillColor=#F2CC8F;" vertex="1" connectable="0" parent="0B1YHZqLJ0e6eENOpXDG-79">
          <mxGeometry x="-0.0167" relative="1" as="geometry">
            <mxPoint x="-20" as="offset" />
          </mxGeometry>
        </mxCell>
        <mxCell id="0B1YHZqLJ0e6eENOpXDG-81" value="&lt;font style=&quot;font-size: 8px;&quot;&gt;Присутствует&lt;/font&gt;" style="rhombus;whiteSpace=wrap;html=1;" vertex="1" parent="0B1YHZqLJ0e6eENOpXDG-48">
          <mxGeometry x="40" y="480" width="80" height="40" as="geometry" />
        </mxCell>
        <mxCell id="0B1YHZqLJ0e6eENOpXDG-82" style="edgeStyle=orthogonalEdgeStyle;rounded=0;orthogonalLoop=1;jettySize=auto;html=1;exitX=1;exitY=0.5;exitDx=0;exitDy=0;strokeColor=#E07A5F;fontColor=#393C56;fillColor=#F2CC8F;entryX=0.75;entryY=1;entryDx=0;entryDy=0;" edge="1" parent="0B1YHZqLJ0e6eENOpXDG-48" source="0B1YHZqLJ0e6eENOpXDG-83" target="0B1YHZqLJ0e6eENOpXDG-75">
          <mxGeometry relative="1" as="geometry">
            <mxPoint x="120" y="340" as="targetPoint" />
          </mxGeometry>
        </mxCell>
        <mxCell id="0B1YHZqLJ0e6eENOpXDG-83" value="Вывод информации об отсутствии" style="rounded=0;whiteSpace=wrap;html=1;fontSize=8;" vertex="1" parent="0B1YHZqLJ0e6eENOpXDG-48">
          <mxGeometry x="40" y="400" width="80" height="40" as="geometry" />
        </mxCell>
        <mxCell id="0B1YHZqLJ0e6eENOpXDG-84" style="edgeStyle=orthogonalEdgeStyle;rounded=0;orthogonalLoop=1;jettySize=auto;html=1;strokeColor=#E07A5F;fontColor=#393C56;fillColor=#F2CC8F;" edge="1" parent="0B1YHZqLJ0e6eENOpXDG-48" target="0B1YHZqLJ0e6eENOpXDG-78">
          <mxGeometry relative="1" as="geometry">
            <mxPoint x="-120" y="400" as="targetPoint" />
            <mxPoint x="60" y="360" as="sourcePoint" />
            <Array as="points">
              <mxPoint x="60" y="380" />
              <mxPoint x="-80" y="380" />
            </Array>
          </mxGeometry>
        </mxCell>
        <mxCell id="0B1YHZqLJ0e6eENOpXDG-98" style="edgeStyle=orthogonalEdgeStyle;rounded=0;orthogonalLoop=1;jettySize=auto;html=1;entryX=0.5;entryY=0;entryDx=0;entryDy=0;strokeColor=#E07A5F;fontColor=#393C56;fillColor=#F2CC8F;" edge="1" parent="0B1YHZqLJ0e6eENOpXDG-48" source="0B1YHZqLJ0e6eENOpXDG-95" target="0B1YHZqLJ0e6eENOpXDG-59">
          <mxGeometry relative="1" as="geometry">
            <Array as="points">
              <mxPoint x="80" y="700" />
              <mxPoint x="-90" y="700" />
            </Array>
          </mxGeometry>
        </mxCell>
        <mxCell id="0B1YHZqLJ0e6eENOpXDG-95" value="Создание квитанции" style="rounded=0;whiteSpace=wrap;html=1;fontSize=8;" vertex="1" parent="0B1YHZqLJ0e6eENOpXDG-48">
          <mxGeometry x="40" y="640" width="80" height="40" as="geometry" />
        </mxCell>
        <mxCell id="0B1YHZqLJ0e6eENOpXDG-59" value="Оплата" style="rounded=0;whiteSpace=wrap;html=1;fontSize=8;" vertex="1" parent="0B1YHZqLJ0e6eENOpXDG-48">
          <mxGeometry x="-130" y="720" width="80" height="40" as="geometry" />
        </mxCell>
        <mxCell id="0B1YHZqLJ0e6eENOpXDG-60" style="edgeStyle=orthogonalEdgeStyle;rounded=0;orthogonalLoop=1;jettySize=auto;html=1;strokeColor=#E07A5F;fontColor=#393C56;fillColor=#F2CC8F;exitX=0.5;exitY=1;exitDx=0;exitDy=0;" edge="1" parent="0B1YHZqLJ0e6eENOpXDG-48" source="0B1YHZqLJ0e6eENOpXDG-59" target="0B1YHZqLJ0e6eENOpXDG-61">
          <mxGeometry relative="1" as="geometry">
            <mxPoint x="30" y="810" as="targetPoint" />
            <mxPoint x="-170" y="770" as="sourcePoint" />
            <Array as="points">
              <mxPoint x="-90" y="780" />
              <mxPoint x="230" y="780" />
            </Array>
          </mxGeometry>
        </mxCell>
        <mxCell id="0B1YHZqLJ0e6eENOpXDG-61" value="Добавление заказа мастеру" style="rounded=0;whiteSpace=wrap;html=1;fontSize=8;" vertex="1" parent="0B1YHZqLJ0e6eENOpXDG-48">
          <mxGeometry x="190" y="800" width="80" height="40" as="geometry" />
        </mxCell>
        <mxCell id="0B1YHZqLJ0e6eENOpXDG-92" style="edgeStyle=orthogonalEdgeStyle;rounded=0;orthogonalLoop=1;jettySize=auto;html=1;exitX=0.5;exitY=1;exitDx=0;exitDy=0;entryX=0.5;entryY=0;entryDx=0;entryDy=0;strokeColor=#E07A5F;fontColor=#393C56;fillColor=#F2CC8F;" edge="1" parent="0B1YHZqLJ0e6eENOpXDG-48" source="0B1YHZqLJ0e6eENOpXDG-61" target="0B1YHZqLJ0e6eENOpXDG-91">
          <mxGeometry relative="1" as="geometry" />
        </mxCell>
        <mxCell id="0B1YHZqLJ0e6eENOpXDG-91" value="Выполнение ремонта" style="rounded=0;whiteSpace=wrap;html=1;fontSize=8;" vertex="1" parent="0B1YHZqLJ0e6eENOpXDG-48">
          <mxGeometry x="30" y="880" width="80" height="40" as="geometry" />
        </mxCell>
        <mxCell id="0B1YHZqLJ0e6eENOpXDG-62" value="Выдача отремонтированной техники" style="rounded=0;whiteSpace=wrap;html=1;fontSize=8;" vertex="1" parent="0B1YHZqLJ0e6eENOpXDG-48">
          <mxGeometry x="30" y="950" width="80" height="40" as="geometry" />
        </mxCell>
        <mxCell id="0B1YHZqLJ0e6eENOpXDG-90" style="edgeStyle=orthogonalEdgeStyle;rounded=0;orthogonalLoop=1;jettySize=auto;html=1;exitX=0.5;exitY=1;exitDx=0;exitDy=0;entryX=0.5;entryY=0;entryDx=0;entryDy=0;strokeColor=#E07A5F;fontColor=#393C56;fillColor=#F2CC8F;" edge="1" parent="0B1YHZqLJ0e6eENOpXDG-48" source="0B1YHZqLJ0e6eENOpXDG-62" target="0B1YHZqLJ0e6eENOpXDG-64">
          <mxGeometry relative="1" as="geometry" />
        </mxCell>
        <mxCell id="0B1YHZqLJ0e6eENOpXDG-64" value="" style="ellipse;whiteSpace=wrap;html=1;labelBackgroundColor=none;fillColor=#000000;strokeColor=#E07A5F;fontColor=#393C56;perimeterSpacing=0;strokeWidth=2;direction=south;" vertex="1" parent="0B1YHZqLJ0e6eENOpXDG-48">
          <mxGeometry x="-100" y="1000" width="20" height="20" as="geometry" />
        </mxCell>
        <mxCell id="0B1YHZqLJ0e6eENOpXDG-93" style="edgeStyle=orthogonalEdgeStyle;rounded=0;orthogonalLoop=1;jettySize=auto;html=1;entryX=0.5;entryY=0;entryDx=0;entryDy=0;strokeColor=#E07A5F;fontColor=#393C56;fillColor=#F2CC8F;" edge="1" parent="0B1YHZqLJ0e6eENOpXDG-48" source="0B1YHZqLJ0e6eENOpXDG-91" target="0B1YHZqLJ0e6eENOpXDG-62">
          <mxGeometry relative="1" as="geometry" />
        </mxCell>
        <mxCell id="0B1YHZqLJ0e6eENOpXDG-49" value="База данных" style="swimlane;whiteSpace=wrap;html=1;strokeColor=#E07A5F;fontColor=#393C56;fillColor=#F2CC8F;startSize=23;" vertex="1" parent="1">
          <mxGeometry x="-333" y="65" width="160" height="1040" as="geometry" />
        </mxCell>
        <mxCell id="0B1YHZqLJ0e6eENOpXDG-54" style="edgeStyle=orthogonalEdgeStyle;rounded=0;orthogonalLoop=1;jettySize=auto;html=1;strokeColor=#E07A5F;fontColor=#393C56;fillColor=#F2CC8F;" edge="1" parent="0B1YHZqLJ0e6eENOpXDG-49" target="0B1YHZqLJ0e6eENOpXDG-55">
          <mxGeometry relative="1" as="geometry">
            <mxPoint x="-120" y="80" as="targetPoint" />
            <mxPoint x="80" y="80" as="sourcePoint" />
            <Array as="points">
              <mxPoint x="80" y="60" />
              <mxPoint x="-77" y="60" />
            </Array>
          </mxGeometry>
        </mxCell>
        <mxCell id="0B1YHZqLJ0e6eENOpXDG-53" value="Данные о технике" style="rounded=0;whiteSpace=wrap;html=1;fontSize=8;" vertex="1" parent="0B1YHZqLJ0e6eENOpXDG-49">
          <mxGeometry x="40" y="80" width="80" height="40" as="geometry" />
        </mxCell>
        <mxCell id="0B1YHZqLJ0e6eENOpXDG-76" value="Данные об услугах" style="rounded=0;whiteSpace=wrap;html=1;fontSize=8;" vertex="1" parent="0B1YHZqLJ0e6eENOpXDG-49">
          <mxGeometry x="40" y="320" width="80" height="40" as="geometry" />
        </mxCell>
        <mxCell id="0B1YHZqLJ0e6eENOpXDG-56" style="edgeStyle=orthogonalEdgeStyle;rounded=0;orthogonalLoop=1;jettySize=auto;html=1;entryX=0;entryY=0.5;entryDx=0;entryDy=0;strokeColor=#E07A5F;fontColor=#393C56;fillColor=#F2CC8F;" edge="1" parent="1" source="0B1YHZqLJ0e6eENOpXDG-51" target="0B1YHZqLJ0e6eENOpXDG-55">
          <mxGeometry relative="1" as="geometry" />
        </mxCell>
        <mxCell id="0B1YHZqLJ0e6eENOpXDG-57" style="edgeStyle=orthogonalEdgeStyle;rounded=0;orthogonalLoop=1;jettySize=auto;html=1;strokeColor=#E07A5F;fontColor=#393C56;fillColor=#F2CC8F;" edge="1" parent="1" source="0B1YHZqLJ0e6eENOpXDG-55" target="0B1YHZqLJ0e6eENOpXDG-58">
          <mxGeometry relative="1" as="geometry">
            <mxPoint x="-613" y="225" as="targetPoint" />
            <Array as="points">
              <mxPoint x="-413" y="205" />
              <mxPoint x="-573" y="205" />
            </Array>
          </mxGeometry>
        </mxCell>
        <mxCell id="0B1YHZqLJ0e6eENOpXDG-67" style="edgeStyle=orthogonalEdgeStyle;rounded=0;orthogonalLoop=1;jettySize=auto;html=1;strokeColor=#E07A5F;fontColor=#393C56;fillColor=#F2CC8F;entryX=0;entryY=0.5;entryDx=0;entryDy=0;" edge="1" parent="1" source="0B1YHZqLJ0e6eENOpXDG-58" target="0B1YHZqLJ0e6eENOpXDG-66">
          <mxGeometry relative="1" as="geometry">
            <mxPoint x="-613" y="305" as="targetPoint" />
            <Array as="points">
              <mxPoint x="-573" y="325" />
            </Array>
          </mxGeometry>
        </mxCell>
        <mxCell id="0B1YHZqLJ0e6eENOpXDG-77" style="edgeStyle=orthogonalEdgeStyle;rounded=0;orthogonalLoop=1;jettySize=auto;html=1;entryX=1.042;entryY=0.486;entryDx=0;entryDy=0;entryPerimeter=0;strokeColor=#E07A5F;fontColor=#393C56;fillColor=#F2CC8F;" edge="1" parent="1" source="0B1YHZqLJ0e6eENOpXDG-76" target="0B1YHZqLJ0e6eENOpXDG-75">
          <mxGeometry relative="1" as="geometry" />
        </mxCell>
        <mxCell id="0B1YHZqLJ0e6eENOpXDG-85" style="edgeStyle=orthogonalEdgeStyle;rounded=0;orthogonalLoop=1;jettySize=auto;html=1;strokeColor=#E07A5F;fontColor=#393C56;fillColor=#F2CC8F;entryX=0;entryY=0.5;entryDx=0;entryDy=0;" edge="1" parent="1" source="0B1YHZqLJ0e6eENOpXDG-78" target="0B1YHZqLJ0e6eENOpXDG-81">
          <mxGeometry relative="1" as="geometry">
            <mxPoint x="-613" y="545" as="targetPoint" />
            <Array as="points">
              <mxPoint x="-573" y="565" />
            </Array>
          </mxGeometry>
        </mxCell>
        <mxCell id="0B1YHZqLJ0e6eENOpXDG-86" style="edgeStyle=orthogonalEdgeStyle;rounded=0;orthogonalLoop=1;jettySize=auto;html=1;exitX=0.5;exitY=1;exitDx=0;exitDy=0;strokeColor=#E07A5F;fontColor=#393C56;fillColor=#F2CC8F;" edge="1" parent="1" source="0B1YHZqLJ0e6eENOpXDG-81" target="0B1YHZqLJ0e6eENOpXDG-94">
          <mxGeometry relative="1" as="geometry">
            <mxPoint x="-412.7142857142858" y="625" as="targetPoint" />
          </mxGeometry>
        </mxCell>
        <mxCell id="0B1YHZqLJ0e6eENOpXDG-87" value="Да" style="edgeLabel;html=1;align=center;verticalAlign=middle;resizable=0;points=[];strokeColor=#E07A5F;fontColor=#393C56;fillColor=#F2CC8F;" vertex="1" connectable="0" parent="0B1YHZqLJ0e6eENOpXDG-86">
          <mxGeometry x="-0.2088" relative="1" as="geometry">
            <mxPoint x="49" y="-10" as="offset" />
          </mxGeometry>
        </mxCell>
        <mxCell id="0B1YHZqLJ0e6eENOpXDG-96" style="edgeStyle=orthogonalEdgeStyle;rounded=0;orthogonalLoop=1;jettySize=auto;html=1;entryX=0.5;entryY=0;entryDx=0;entryDy=0;strokeColor=#E07A5F;fontColor=#393C56;fillColor=#F2CC8F;" edge="1" parent="1" source="0B1YHZqLJ0e6eENOpXDG-94" target="0B1YHZqLJ0e6eENOpXDG-95">
          <mxGeometry relative="1" as="geometry">
            <Array as="points">
              <mxPoint x="-573" y="685" />
              <mxPoint x="-413" y="685" />
            </Array>
          </mxGeometry>
        </mxCell>
      </root>
    </mxGraphModel>
  </diagram>
</mxfile>
